<svg width="100" height="84" viewBox="0 0 100 84" fill="none" xmlns="http://www.w3.org/2000/svg">
<rect width="100" height="84" rx="10" fill="white"/>
<path d="M14.5656 18.9389C24.859 27.6563 42.9208 42.9929 48.2294 47.7749C48.9421 48.4203 49.7064 48.7484 50.4999 48.7484C51.2918 48.7484 52.0549 48.4234 52.7659 47.7811C58.079 42.9944 76.1409 27.6563 86.4345 18.9389C87.0753 18.3972 87.173 17.445 86.6542 16.7828C85.4548 15.2524 83.6665 14.375 81.7499 14.375H19.25C17.3335 14.375 15.5451 15.2524 14.3458 16.7829C13.827 17.445 13.9247 18.3972 14.5656 18.9389Z" fill="#CB2964"/>
<path d="M87.0937 23.663C86.5398 23.4052 85.8883 23.4951 85.4274 23.8889C74.0122 33.5659 59.4432 45.9699 54.8594 50.1004C52.2867 52.4227 48.7161 52.4227 46.1374 50.0973C41.2516 45.6951 24.891 31.7867 15.5726 23.8887C15.1086 23.495 14.4556 23.4081 13.9063 23.6629C13.3541 23.9194 13 24.4717 13 25.0805V64.375C13 67.822 15.803 70.625 19.25 70.625H81.7501C85.197 70.625 88 67.822 88 64.375V25.0805C88 24.4717 87.6459 23.9179 87.0937 23.663Z" fill="#CB2964"/>
</svg>
